<svg xmlns="http://www.w3.org/2000/svg" viewBox="0 0 1200 560" width="1200" height="560" role="img" aria-label="supplyos-ai hero">
<title>supplyos-ai hero</title>
<rect width="1200" height="560" fill="#1a1214"/>
<defs><linearGradient id="gh" x1="0" y1="0" x2="1" y2="1"><stop offset="0%" stop-color="#ffb4a2"/><stop offset="100%" stop-color="#48cae4"/></linearGradient></defs><rect x="96.00" y="150.00" width="88.00" height="72.00" rx="8.00" fill="#ffb4a2" opacity="0.38"/><rect x="196.00" y="150.00" width="88.00" height="72.00" rx="8.00" fill="#48cae4" opacity="0.58"/><rect x="296.00" y="150.00" width="88.00" height="72.00" rx="8.00" fill="#f9c74f" opacity="0.49"/><rect x="396.00" y="150.00" width="88.00" height="72.00" rx="8.00" fill="#ffb4a2" opacity="0.58"/><rect x="496.00" y="150.00" width="88.00" height="72.00" rx="8.00" fill="#48cae4" opacity="0.93"/><rect x="596.00" y="150.00" width="88.00" height="72.00" rx="8.00" fill="#f9c74f" opacity="0.89"/><rect x="696.00" y="150.00" width="88.00" height="72.00" rx="8.00" fill="#ffb4a2" opacity="0.69"/><rect x="796.00" y="150.00" width="88.00" height="72.00" rx="8.00" fill="#48cae4" opacity="0.82"/><rect x="896.00" y="150.00" width="88.00" height="72.00" rx="8.00" fill="#f9c74f" opacity="0.80"/><rect x="996.00" y="150.00" width="88.00" height="72.00" rx="8.00" fill="#ffb4a2" opacity="0.52"/><rect x="96.00" y="234.00" width="88.00" height="72.00" rx="8.00" fill="#48cae4" opacity="0.48"/><rect x="196.00" y="234.00" width="88.00" height="72.00" rx="8.00" fill="#f9c74f" opacity="0.63"/><rect x="296.00" y="234.00" width="88.00" height="72.00" rx="8.00" fill="#ffb4a2" opacity="0.42"/><rect x="396.00" y="234.00" width="88.00" height="72.00" rx="8.00" fill="#48cae4" opacity="0.41"/><rect x="496.00" y="234.00" width="88.00" height="72.00" rx="8.00" fill="#f9c74f" opacity="0.81"/><rect x="596.00" y="234.00" width="88.00" height="72.00" rx="8.00" fill="#ffb4a2" opacity="0.92"/><rect x="696.00" y="234.00" width="88.00" height="72.00" rx="8.00" fill="#48cae4" opacity="0.47"/><rect x="796.00" y="234.00" width="88.00" height="72.00" rx="8.00" fill="#f9c74f" opacity="0.85"/><rect x="896.00" y="234.00" width="88.00" height="72.00" rx="8.00" fill="#ffb4a2" opacity="0.64"/><rect x="996.00" y="234.00" width="88.00" height="72.00" rx="8.00" fill="#48cae4" opacity="0.82"/><rect x="96.00" y="318.00" width="88.00" height="72.00" rx="8.00" fill="#f9c74f" opacity="0.42"/><rect x="196.00" y="318.00" width="88.00" height="72.00" rx="8.00" fill="#ffb4a2" opacity="0.82"/><rect x="296.00" y="318.00" width="88.00" height="72.00" rx="8.00" fill="#48cae4" opacity="0.78"/><rect x="396.00" y="318.00" width="88.00" height="72.00" rx="8.00" fill="#f9c74f" opacity="0.38"/><rect x="496.00" y="318.00" width="88.00" height="72.00" rx="8.00" fill="#ffb4a2" opacity="0.73"/><rect x="596.00" y="318.00" width="88.00" height="72.00" rx="8.00" fill="#48cae4" opacity="0.81"/><rect x="696.00" y="318.00" width="88.00" height="72.00" rx="8.00" fill="#f9c74f" opacity="0.93"/><rect x="796.00" y="318.00" width="88.00" height="72.00" rx="8.00" fill="#ffb4a2" opacity="0.56"/><rect x="896.00" y="318.00" width="88.00" height="72.00" rx="8.00" fill="#48cae4" opacity="0.39"/><rect x="996.00" y="318.00" width="88.00" height="72.00" rx="8.00" fill="#f9c74f" opacity="0.85"/><rect x="96.00" y="402.00" width="88.00" height="72.00" rx="8.00" fill="#ffb4a2" opacity="0.69"/><rect x="196.00" y="402.00" width="88.00" height="72.00" rx="8.00" fill="#48cae4" opacity="0.66"/><rect x="296.00" y="402.00" width="88.00" height="72.00" rx="8.00" fill="#f9c74f" opacity="0.74"/><rect x="396.00" y="402.00" width="88.00" height="72.00" rx="8.00" fill="#ffb4a2" opacity="0.71"/><rect x="496.00" y="402.00" width="88.00" height="72.00" rx="8.00" fill="#48cae4" opacity="0.80"/><rect x="596.00" y="402.00" width="88.00" height="72.00" rx="8.00" fill="#f9c74f" opacity="0.47"/><rect x="696.00" y="402.00" width="88.00" height="72.00" rx="8.00" fill="#ffb4a2" opacity="0.92"/><rect x="796.00" y="402.00" width="88.00" height="72.00" rx="8.00" fill="#48cae4" opacity="0.65"/><rect x="896.00" y="402.00" width="88.00" height="72.00" rx="8.00" fill="#f9c74f" opacity="0.64"/><rect x="996.00" y="402.00" width="88.00" height="72.00" rx="8.00" fill="#ffb4a2" opacity="0.66"/><rect x="96.00" y="486.00" width="88.00" height="72.00" rx="8.00" fill="#48cae4" opacity="0.82"/><rect x="196.00" y="486.00" width="88.00" height="72.00" rx="8.00" fill="#f9c74f" opacity="0.49"/><rect x="296.00" y="486.00" width="88.00" height="72.00" rx="8.00" fill="#ffb4a2" opacity="0.80"/><rect x="396.00" y="486.00" width="88.00" height="72.00" rx="8.00" fill="#48cae4" opacity="0.94"/><rect x="496.00" y="486.00" width="88.00" height="72.00" rx="8.00" fill="#f9c74f" opacity="0.64"/><rect x="596.00" y="486.00" width="88.00" height="72.00" rx="8.00" fill="#ffb4a2" opacity="0.58"/><rect x="696.00" y="486.00" width="88.00" height="72.00" rx="8.00" fill="#48cae4" opacity="0.53"/><rect x="796.00" y="486.00" width="88.00" height="72.00" rx="8.00" fill="#f9c74f" opacity="0.57"/><rect x="896.00" y="486.00" width="88.00" height="72.00" rx="8.00" fill="#ffb4a2" opacity="0.48"/><rect x="996.00" y="486.00" width="88.00" height="72.00" rx="8.00" fill="#48cae4" opacity="0.55"/>
</svg>